<svg xmlns="http://www.w3.org/2000/svg" version="1.1" xmlns:xlink="http://www.w3.org/1999/xlink" width="512" height="512"><svg width="512" height="512" viewBox="0 0 512 512" version="1.1" id="SvgjsSvg1100" xml:space="preserve" inkscape:version="1.4 (86a8ad7, 2024-10-11)" sodipodi:docname="spriggles-full.svg" xmlns:inkscape="http://www.inkscape.org/namespaces/inkscape" xmlns:sodipodi="http://sodipodi.sourceforge.net/DTD/sodipodi-0.dtd" xmlns="http://www.w3.org/2000/svg" xmlns:svg="http://www.w3.org/2000/svg"><sodipodi:namedview id="SvgjsSodipodi:namedview1099" pagecolor="#ffffff" bordercolor="#000000" borderopacity="0.25" inkscape:showpageshadow="2" inkscape:pageopacity="0.0" inkscape:pagecheckerboard="0" inkscape:deskcolor="#d1d1d1" inkscape:document-units="mm" showgrid="false" inkscape:zoom="1.2561406" inkscape:cx="692.99567" inkscape:cy="134.14103" inkscape:window-width="3440" inkscape:window-height="1369" inkscape:window-x="-8" inkscape:window-y="-8" inkscape:window-maximized="1" inkscape:current-layer="layer1"><inkscape:grid id="SvgjsInkscape:grid1098" units="mm" originx="0" originy="0" spacingx="3.7795276" spacingy="3.7795276" empcolor="#0099e5" empopacity="0.30196078" color="#0099e5" opacity="0.14901961" empspacing="2" enabled="true" visible="false"></inkscape:grid></sodipodi:namedview><defs id="SvgjsDefs1097"></defs><g inkscape:label="Layer 1" inkscape:groupmode="layer" id="SvgjsG1096"><g id="SvgjsG1095" transform="matrix(1.1360934,0,0,1.1271056,-619.95487,-6.6445256)" style="stroke-width:0.883712"><ellipse style="fill:#1e6e23;fill-opacity:1;stroke-width:88.3712;stroke-linecap:round;stroke-miterlimit:20" id="SvgjsEllipse1094" cx="771.02362" cy="241.88977" rx="162.5" ry="167.5"></ellipse><g id="SvgjsG1093" transform="translate(7.5590415,158.74016)" style="stroke-width:0.883712"><text xml:space="preserve" style="font-size:120px;line-height:0;font-family:Glasgow;-inkscape-font-specification:Glasgow;text-align:start;letter-spacing:0px;writing-mode:lr-tb;direction:ltr;text-anchor:start;fill:#cccccc;fill-opacity:0.483766;stroke:#207127;stroke-width:26.5114;stroke-linecap:round;stroke-miterlimit:20;stroke-dasharray:none;stroke-opacity:1" x="549.6955" y="170.1664" id="SvgjsText1092" transform="matrix(0.99992904,-0.07556606,-0.01191639,1.0009715,0,0)"><tspan sodipodi:role="line" id="SvgjsTspan1091" x="549.6955" y="170.1664" style="font-style:normal;font-variant:normal;font-weight:bold;font-stretch:extra-condensed;font-size:120px;font-family:'Noto Sans ExtraCondensed';-inkscape-font-specification:'Noto Sans ExtraCondensed,  Bold Extra-Condensed';fill:#ffffff;fill-opacity:0.483766;stroke:#207127;stroke-width:26.5114;stroke-linecap:round;stroke-linejoin:round;stroke-dasharray:none;stroke-opacity:1">Spriggles</tspan></text><text xml:space="preserve" style="font-size:120px;line-height:0;font-family:Glasgow;-inkscape-font-specification:Glasgow;text-align:start;letter-spacing:0px;writing-mode:lr-tb;direction:ltr;text-anchor:start;opacity:1;fill:#f6ecda;fill-opacity:1;stroke:none;stroke-width:17.6742;stroke-linecap:round;stroke-miterlimit:20;stroke-dasharray:none;stroke-opacity:1" x="549.6955" y="170.1664" id="SvgjsText1090" transform="matrix(0.99992904,-0.07556606,-0.01191639,1.0009715,0,0)"><tspan sodipodi:role="line" id="SvgjsTspan1089" x="549.6955" y="170.1664" style="font-style:normal;font-variant:normal;font-weight:bold;font-stretch:extra-condensed;font-size:120px;font-family:'Noto Sans ExtraCondensed';-inkscape-font-specification:'Noto Sans ExtraCondensed,  Bold Extra-Condensed';fill:#f6ecda;fill-opacity:1;stroke:none;stroke-width:17.6742;stroke-linecap:round;stroke-linejoin:round;stroke-dasharray:none;stroke-opacity:1">Spriggles</tspan></text></g><g id="SvgjsG1088" transform="translate(282.89763,50.53668)" style="stroke-width:0.885099;stroke-dasharray:none"><path style="opacity:1;fill:#5aa422;fill-opacity:1;stroke:none;stroke-width:0.885099;stroke-linecap:round;stroke-linejoin:round;stroke-miterlimit:20;stroke-dasharray:none;stroke-opacity:1" d="m 500.32018,139.82898 c 0,0 4.3766,-16.71028 25.26256,-23.27423 20.88597,-6.56394 32.42357,2.18735 32.42357,2.18735 0,0 -14.50251,16.50892 -28.24599,20.48982 -13.74349,3.9809 -29.44014,0.59706 -29.44014,0.59706 z" id="SvgjsPath1087" sodipodi:nodetypes="czczc"></path><path style="opacity:1;fill:#5aa422;fill-opacity:1;stroke:none;stroke-width:0.885099;stroke-linecap:round;stroke-linejoin:round;stroke-miterlimit:20;stroke-dasharray:none;stroke-opacity:1" d="m 475.37989,150.28243 c 0,0 -3.15085,-9.78966 -5.67213,-14.23009 -2.28979,-4.03272 -8.45845,-11.04574 -8.45845,-11.04574 0,0 -12.78936,-1.14727 -18.50908,-3.78143 -8.24314,-3.7963 -15.88189,-9.58564 -21.48086,-16.72797 -5.0193,-6.40287 -7.51647,-14.52176 -9.96465,-22.2804 -2.94814,-9.34302 -6.94483,-27.2503 -5.57263,-28.85823 1.3722,-1.60793 25.34574,1.18004 36.81912,5.97067 8.093,3.37918 15.84332,8.6057 21.2547,15.50732 5.84421,7.45364 9.92197,16.85541 10.78789,26.28736 0.5329,5.80452 -2.5595,16.83634 -3.5824,17.11592 -1.0229,0.27958 -11.47995,-20.59004 -19.50418,-29.05726 -6.68075,-7.04956 -23.28561,-17.51396 -23.28561,-17.51396 0,0 21.22893,22.9752 30.05236,35.82402 6.82473,9.93828 17.51397,31.64454 17.51397,31.64454 l 10.7472,-34.62988 c 0,0 -5.04549,-15.12138 -4.57752,-22.88757 0.79183,-13.14046 4.8642,-26.67964 12.33939,-37.5157 7.27176,-10.54117 18.52254,-18.213989 29.85335,-24.181208 14.02203,-7.384522 43.55014,-15.360341 45.5761,-13.533516 2.02596,1.826825 1.04232,26.227264 -1.39315,39.008364 -1.95325,10.25044 -4.94852,20.64641 -10.466,29.50328 -6.90022,11.07651 -16.30001,21.06874 -27.34824,28.01417 -10.9052,6.85551 -35.65553,12.92434 -36.62011,12.33938 C 492.92438,114.66955 504.57418,87.736048 512,75.052 c 8.68639,-14.837236 30.63822,-41.493037 30.63822,-41.493037 0,0 -13.46927,9.197112 -19.09493,15.023077 -8.68128,8.990382 -16.18874,19.26857 -22.13829,30.25922 -6.24309,11.53291 -10.42006,24.16297 -13.88474,36.81129 -1.6194,5.91183 -1.87603,12.12267 -3.18436,18.11103 -1.22956,5.62783 -4.3785,16.71787 -4.3785,16.71787 z" id="SvgjsPath1086" sodipodi:nodetypes="cacaaazaaazacaccaaazaaazacaaaacc"></path></g></g></g></svg><style>@media (prefers-color-scheme: light) { :root { filter: none; } }
@media (prefers-color-scheme: dark) { :root { filter: none; } }
</style></svg>