<?xml version="1.0" encoding="UTF-8" standalone="no"?>
<!-- Created with Inkscape (http://www.inkscape.org/) -->

<svg
   width="512"
   height="512"
   viewBox="0 0 512 512"
   version="1.1"
   id="svg1"
   xml:space="preserve"
   inkscape:version="1.4 (86a8ad7, 2024-10-11)"
   sodipodi:docname="spriggles.svg"
   xmlns:inkscape="http://www.inkscape.org/namespaces/inkscape"
   xmlns:sodipodi="http://sodipodi.sourceforge.net/DTD/sodipodi-0.dtd"
   xmlns="http://www.w3.org/2000/svg"
   xmlns:svg="http://www.w3.org/2000/svg"><sodipodi:namedview
     id="namedview1"
     pagecolor="#ffffff"
     bordercolor="#000000"
     borderopacity="0.25"
     inkscape:showpageshadow="2"
     inkscape:pageopacity="0.0"
     inkscape:pagecheckerboard="0"
     inkscape:deskcolor="#d1d1d1"
     inkscape:document-units="mm"
     showgrid="false"
     inkscape:zoom="1.2561406"
     inkscape:cx="692.99567"
     inkscape:cy="134.14103"
     inkscape:window-width="3440"
     inkscape:window-height="1369"
     inkscape:window-x="-8"
     inkscape:window-y="-8"
     inkscape:window-maximized="1"
     inkscape:current-layer="g4"><inkscape:grid
       id="grid1"
       units="mm"
       originx="0"
       originy="0"
       spacingx="3.7795276"
       spacingy="3.7795276"
       empcolor="#0099e5"
       empopacity="0.30196078"
       color="#0099e5"
       opacity="0.14901961"
       empspacing="2"
       enabled="true"
       visible="false" /></sodipodi:namedview><defs
     id="defs1" /><g
     inkscape:label="Layer 1"
     inkscape:groupmode="layer"
     id="layer1"><g
       id="g4"
       transform="translate(-515.02364,22.974341)"><ellipse
         style="fill:#1e6e23;fill-opacity:1;stroke-width:100;stroke-linecap:round;stroke-miterlimit:20"
         id="path1"
         cx="771.02362"
         cy="241.88977"
         rx="162.5"
         ry="167.5" /><g
         id="g2"
         transform="translate(7.5590415,158.74016)"><g
           id="text1"
           transform="matrix(0.99992904,-0.07556606,-0.01191639,1.0009715,0,0)"><path
             style="-inkscape-font-specification:'Noto Sans ExtraCondensed,  Bold Extra-Condensed';fill:#ffffff;fill-opacity:0.483766;stroke-linecap:round;stroke-linejoin:round;stroke-miterlimit:20"
             d="m 596.6155,146.1664 q 0,7.92 -3.24,13.68 -3.12,5.64 -8.64,8.64 -5.4,2.88 -12.36,2.88 -2.64,0 -5.88,-0.6 -3.24,-0.48 -6.6,-1.56 -3.24,-1.2 -6.48,-2.88 v -16.92 q 4.92,2.64 9.6,4.8 4.8,2.16 9.36,2.16 3,0 4.8,-1.32 1.8,-1.32 2.52,-3.36 0.84,-2.16 0.84,-4.68 0,-3 -1.44,-5.28 -1.44,-2.4 -3.96,-4.44 -2.4,-2.16 -5.4,-4.56 -1.68,-1.68 -4.32,-3.6 -2.52,-1.92 -5.16,-4.68 -2.64,-2.88 -4.44,-6.84 -1.68,-3.96 -1.68,-9.72 0,-7.2 2.52,-12.720003 2.64,-5.64 7.8,-8.76 5.28,-3.12 12.72,-3.12 4.08,0 8.76,1.32 4.68,1.32 10.92,4.44 l -4.8,14.160003 q -4.92,-2.64 -8.04,-3.720003 -3.12,-1.08 -6.24,-1.08 -2.16,0 -3.96,1.08 -1.68,1.080003 -2.64,3.000003 -0.96,1.92 -0.96,4.56 0,3.24 1.08,5.4 1.08,2.04 3.48,3.96 2.4,1.92 6,4.68 5.28,3.36 8.76,6.96 3.48,3.6 5.28,8.04 1.8,4.44 1.8,10.08 z m 40.20004,-42.84 q 9.24,0 14.28,8.88 5.04,8.88 5.04,25.2 0,10.56 -2.28,18.24 -2.28,7.56 -6.48,11.64 -4.2,4.08 -10.08,4.08 -3,0 -5.76,-1.08 -2.64,-1.08 -4.92,-3.24 -2.16,-2.16 -3.84,-5.4 h -0.48 q 0.24,3.6 0.36,6.48 0.12,2.76 0.12,4.56 v 26.28 h -15.6 v -94.44 h 12.6 l 2.16,8.64 h 0.84 q 2.16,-3.84 4.2,-6 2.04,-2.16 4.44,-3 2.52,-0.84 5.4,-0.84 z m -4.8,13.2 q -3.24,0 -5.28,2.04 -1.92,1.92 -3,6.24 -0.96,4.2 -0.96,10.92 v 3.24 q 0,6.6 0.96,10.8 1.08,4.08 3,6.12 2.04,2.04 5.16,2.04 2.88,0 4.68,-2.28 1.92,-2.28 2.76,-6.72 0.96,-4.44 0.96,-11.28 0,-10.68 -2.04,-15.84 -2.04,-5.28 -6.24,-5.28 z m 63.72,-13.2 q 1.2,0 2.4,0.24 1.32,0.12 3,0.6 l -1.56,16.68 q -1.08,-0.48 -2.52,-0.6 -1.32,-0.24 -3,-0.24 -2.76,0 -4.8,1.2 -2.04,1.08 -3.6,3.36 -1.44,2.16 -2.16,5.28 -0.6,3.12 -0.6,6.84 v 33.48 h -15.72 v -65.64 h 12.12 l 2.16,10.8 h 0.84 q 1.32,-3.12 3.24,-5.88 1.92,-2.76 4.44,-4.44 2.64,-1.68 5.76,-1.68 z m 28.80001,1.2 v 65.64 h -15.72 v -65.64 z m -7.8,-25.800003 q 4.44,0 6.48,2.28 2.04,2.28 2.04,6.72 0,4.32 -2.16,6.6 -2.16,2.16 -6.36,2.16 -4.2,0 -6.36,-2.16 -2.16,-2.28 -2.16,-6.6 0,-4.56 2.04,-6.72 2.16,-2.28 6.48,-2.28 z m 38.39994,24.600003 q 4.56,0 7.8,2.16 3.36,2.16 6.12,7.44 h 0.84 l 1.32,-8.4 h 13.44 v 62.28 q 0,10.32 -2.88,17.52 -2.88,7.2 -9.12,10.92 -6.24,3.72 -16.08,3.72 -5.4,0 -9.72,-1.2 -4.32,-1.08 -8.16,-3.36 v -13.8 q 4.8,2.64 9,3.72 4.32,1.2 8.4,1.2 6.12,0 9.48,-3.12 3.48,-3 3.48,-10.32 v -1.08 q 0,-2.04 0.12,-4.68 0.24,-2.64 0.48,-4.92 h -0.6 q -2.64,5.16 -6,7.56 -3.36,2.4 -8.4,2.4 -8.88,0 -13.92,-8.76 -5.04,-8.88 -5.04,-24.84 0,-16.44 5.16,-25.44 5.16,-9 14.28,-9 z m 4.68,13.56 q -2.76,0 -4.56,2.4 -1.8,2.28 -2.76,6.96 -0.96,4.68 -0.96,11.76 0,10.08 2.04,15 2.16,4.92 6.48,4.92 2.28,0 3.96,-1.08 1.68,-1.2 2.76,-3.36 1.2,-2.16 1.68,-5.52 0.6,-3.48 0.6,-8.04 v -3.24 q 0,-6.96 -0.96,-11.28 -0.96,-4.44 -3,-6.48 -2.04,-2.04 -5.28,-2.04 z m 55.32,-13.56 q 4.56,0 7.8,2.16 3.36,2.16 6.12,7.44 h 0.84 l 1.32,-8.4 h 13.44 v 62.28 q 0,10.32 -2.88,17.52 -2.88,7.2 -9.12,10.92 -6.24,3.72 -16.08,3.72 -5.4,0 -9.72,-1.2 -4.32,-1.08 -8.16,-3.36 v -13.8 q 4.8,2.64 9,3.72 4.32,1.2 8.4,1.2 6.12,0 9.48,-3.12 3.48,-3 3.48,-10.32 v -1.08 q 0,-2.04 0.12,-4.68 0.24,-2.64 0.48,-4.92 h -0.6 q -2.64,5.16 -6,7.56 -3.36,2.4 -8.4,2.4 -8.88,0 -13.92,-8.76 -5.04,-8.88 -5.04,-24.84 0,-16.44 5.16,-25.44 5.16,-9 14.28,-9 z m 4.68,13.56 q -2.76,0 -4.56,2.4 -1.8,2.28 -2.76,6.96 -0.96,4.68 -0.96,11.76 0,10.08 2.04,15 2.16,4.92 6.48,4.92 2.28,0 3.96,-1.08 1.68,-1.2 2.76,-3.36 1.2,-2.16 1.68,-5.52 0.6,-3.48 0.6,-8.04 v -3.24 q 0,-6.96 -0.96,-11.28 -0.96,-4.44 -3,-6.48 -2.04,-2.04 -5.28,-2.04 z m 53.88,53.28 h -15.6 V 78.966397 h 15.6 z m 34.80007,-66.72 q 7.44,0 12.48,3.72 5.16,3.6 7.8,10.2 2.64,6.6 2.64,15.6 v 8.88 h -31.32 q 0.12,8.52 3.12,12.72 3.12,4.08 9.36,4.08 4.2,0 7.92,-1.08 3.72,-1.2 7.92,-3.72 v 12.96 q -3.96,2.4 -8.4,3.48 -4.44,1.08 -9.6,1.08 -9,0 -14.76,-4.08 -5.64,-4.08 -8.28,-11.64 -2.64,-7.56 -2.64,-17.88 0,-11.16 2.64,-18.72 2.76,-7.68 8.04,-11.64 5.28,-3.96 13.08,-3.96 z m 0.24,12.24 q -3.72,0 -6.12,3.48 -2.28,3.48 -2.4,11.4 h 16.68 q 0,-4.68 -0.96,-7.92 -0.96,-3.36 -2.76,-5.16 -1.8,-1.8 -4.44,-1.8 z m 68.16009,35.28 q 0,6.6 -2.52,11.28 -2.52,4.56 -7.2,6.84 -4.68,2.28 -11.28,2.28 -4.68,0 -9,-0.96 -4.32,-0.84 -8.16,-2.76 v -15.12 q 3.24,2.16 7.32,3.72 4.2,1.56 8.52,1.56 3.24,0 4.92,-1.44 1.8,-1.56 1.8,-4.56 0,-1.68 -0.72,-3.12 -0.6,-1.44 -2.76,-3 -2.16,-1.56 -6.36,-3.72 -4.08,-2.28 -6.96,-5.04 -2.88,-2.88 -4.44,-6.6 -1.44,-3.72 -1.44,-8.4 0,-8.64 5.4,-13.56 5.4,-5.04 14.76,-5.04 4.8,0 9,1.32 4.2,1.32 8.4,3.84 l -4.32,12 q -2.76,-1.92 -5.88,-3.12 -3.12,-1.32 -6.36,-1.32 -2.88,0 -4.44,1.32 -1.44,1.32 -1.44,3.84 0,1.68 0.6,3 0.72,1.2 2.88,2.64 2.16,1.44 6.12,3.96 4.08,2.28 7.08,5.04 3,2.76 4.68,6.48 1.8,3.6 1.8,8.64 z"
             id="path4" /><path
             style="-inkscape-font-specification:'Noto Sans ExtraCondensed,  Bold Extra-Condensed';fill:#207127;stroke-linecap:round;stroke-linejoin:round;stroke-miterlimit:20"
             d="m 716.73633,63.726562 c -5.51889,10e-7 -12.49544,1.818427 -17.36914,6.962891 a 15.0015,15.0015 0 0 0 -0.0176,0.01758 c -4.97794,5.270755 -6.13477,11.742689 -6.13477,17.019531 0,0.249791 0.0516,0.528512 0.0586,0.783204 -3.19977,0.32528 -6.37744,1.260239 -9.24219,2.710937 a 15.0015,15.0015 0 0 0 -4.73633,-1.693359 h -12.11914 a 15.0015,15.0015 0 0 0 -11.3125,5.822265 c -5.46698,-4.286806 -12.27017,-7.023437 -19.04687,-7.023437 -3.37834,0 -6.83822,0.50727 -10.14454,1.609375 a 15.0015,15.0015 0 0 0 -0.21093,0.07227 c -0.77274,0.270458 -1.41245,0.739967 -2.14258,1.082032 a 15.0015,15.0015 0 0 0 -4.54297,-1.5625 h -8.00586 a 15.0015,15.0015 0 0 0 -8.20508,-13.896485 c -4.74481,-2.372409 -9.14126,-4.215574 -13.55664,-5.460937 -4.21609,-1.189154 -8.49438,-1.882813 -12.83203,-1.882813 -7.05677,0 -14.17495,1.555263 -20.35156,5.205078 a 15.0015,15.0015 0 0 0 -0.13086,0.07813 c -5.89536,3.564635 -10.72252,9.039743 -13.62305,15.236329 a 15.0015,15.0015 0 0 0 -0.0605,0.130859 c -2.70321,5.921312 -3.875,12.39922 -3.875,18.94922 0,5.29833 0.72989,10.531 2.87109,15.57812 a 15.0015,15.0015 0 0 0 0.1543,0.34766 c 1.7763,3.90786 4.11052,7.5769 7.03711,10.76953 a 15.0015,15.0015 0 0 0 0.21875,0.23242 c 0.11306,0.1182 0.24008,0.20328 0.35351,0.32032 a 15.0015,15.0015 0 0 0 -11.35351,14.27148 v 16.91992 a 15.0015,15.0015 0 0 0 8.0957,13.31641 c 2.67826,1.38872 5.40299,2.60462 8.17383,3.63086 a 15.0015,15.0015 0 0 0 0.61914,0.21289 c 2.87602,0.92443 5.79311,1.60575 8.73437,2.05664 2.78288,0.50238 5.53221,0.82422 8.33594,0.82422 6.70897,0 13.45884,-1.46529 19.41992,-4.64453 a 15.0015,15.0015 0 0 0 0.10352,-0.0566 c 0.0964,-0.0524 0.18143,-0.12442 0.27734,-0.17774 v 17.47852 a 15.0015,15.0015 0 0 0 15,15 h 15.59961 a 15.0015,15.0015 0 0 0 15,-15 v -12.64844 c 6.48143,-0.11867 13.15354,-2.69288 18.22852,-6.83399 a 15.0015,15.0015 0 0 0 11.17187,5.68165 h 15.7207 a 15.0015,15.0015 0 0 0 12.95899,-7.47071 15.0015,15.0015 0 0 0 12.96094,7.47071 h 14.8789 v 9.24023 a 15.0015,15.0015 0 0 0 7.3418,12.89844 c 3.73076,2.21514 7.78221,3.87793 11.98633,4.94922 4.37762,1.19593 8.90485,1.71289 13.55273,1.71289 8.45025,0 16.62099,-1.58013 23.75977,-5.83594 2.37199,-1.41407 4.48908,-3.20313 6.47265,-5.13477 a 15.0015,15.0015 0 0 0 4.22852,4.3086 c 3.73076,2.21514 7.78221,3.87793 11.98633,4.94922 4.37762,1.19593 8.90485,1.71289 13.55273,1.71289 8.45025,0 16.62099,-1.58013 23.75977,-5.83594 6.94425,-4.13984 12.39064,-10.79302 15.36718,-18.23438 0.64347,-1.60865 1.17309,-3.25745 1.64649,-4.92968 a 15.0015,15.0015 0 0 0 0.74609,0.19922 h 15.59961 a 15.0015,15.0015 0 0 0 12.1211,-6.63086 c 0.36318,0.28604 0.67148,0.63274 1.04687,0.90429 a 15.0015,15.0015 0 0 0 0.12109,0.0879 c 6.84703,4.84998 15.16498,6.83985 23.43165,6.83985 4.48651,0 8.88785,-0.47045 13.14453,-1.50586 3.19958,-0.77828 6.2519,-2.03111 9.20312,-3.49219 3.52615,1.68651 7.25085,2.95286 11.08985,3.71484 3.93393,0.85767 7.96937,1.28321 12.04296,1.28321 6.12728,0 12.23375,-1.06094 17.84961,-3.79688 5.70663,-2.78015 10.68834,-7.51407 13.75782,-13.06836 a 15.0015,15.0015 0 0 0 0.0781,-0.14453 c 3.07548,-5.7116 4.31445,-12.08153 4.31445,-18.39062 0,-5.02826 -0.9135,-10.19613 -3.24218,-15.00586 -1.25011,-2.72095 -2.95794,-5.20401 -4.86719,-7.5293 a 15.0015,15.0015 0 0 0 2.18164,-2.86523 l 4.32031,-12 a 15.0015,15.0015 0 0 0 -6.39648,-17.943363 c -3.70073,-2.220437 -7.57881,-4.01729 -11.61914,-5.28711 -4.35928,-1.370058 -8.92305,-2.009765 -13.49805,-2.009765 -8.89996,0 -18.15986,2.75436 -24.91406,9.015625 -0.20498,0.187893 -0.34214,0.435138 -0.54102,0.628906 -1.13444,-1.063032 -2.3235,-2.069438 -3.59765,-2.970703 -6.17149,-4.496395 -13.82757,-6.552734 -21.22657,-6.552734 -6.864,0 -13.85741,1.841805 -19.80078,5.558593 V 78.966797 a 15.0015,15.0015 0 0 0 -15,-15 H 858.0957 a 15.0015,15.0015 0 0 0 -15,15 v 10.560547 h -11.88086 a 15.0015,15.0015 0 0 0 -3.7539,1.386718 c -3.95398,-1.776352 -8.26496,-2.58789 -12.32617,-2.58789 -6.8276,0 -13.62009,2.787589 -19.07422,7.117187 a 15.0015,15.0015 0 0 0 -11.4043,-5.916015 h -13.44141 a 15.0015,15.0015 0 0 0 -3.7539,1.386718 c -3.95398,-1.776352 -8.26496,-2.58789 -12.32617,-2.58789 -5.38029,0 -10.7327,1.745512 -15.4336,4.595703 0.33855,-1.787866 0.55469,-3.551235 0.55469,-5.195313 0,-5.257297 -1.27507,-11.596834 -5.86133,-16.722656 -4.96582,-5.550035 -12.13063,-7.277343 -17.6582,-7.277344 z m 0,17.759766 c -0.22857,0 2.24877,0.23705 4.24609,2.234375 l 0.2832,0.289063 c 1.81299,1.913703 1.94922,4.096797 1.94922,3.716796 0,-0.564001 -0.21525,0.437967 -0.9375,1.800782 h -11.12109 c -0.68062,-1.289706 -0.90039,-2.279888 -0.90039,-1.800782 0,0.38 0.13819,-1.803093 1.95117,-3.716796 l 0.28125,-0.289063 c 1.99733,-1.997325 4.47662,-2.234375 4.24805,-2.234375 z m -17.24219,7.142578 1.58398,0.228516 c -0.27081,-0.05416 -0.55676,-0.03594 -0.83007,-0.08203 -0.26739,-0.03227 -0.47851,-0.121448 -0.75391,-0.146485 z m 71.55273,4.240235 0.20899,0.136718 c -0.0345,-0.02298 -0.0729,-0.03775 -0.10742,-0.06055 -0.0367,-0.02382 -0.0647,-0.05247 -0.10157,-0.07617 z m 60,0 0.20899,0.136718 c -0.0345,-0.02298 -0.0729,-0.03775 -0.10742,-0.06055 -0.0367,-0.02382 -0.0647,-0.05247 -0.10157,-0.07617 z m -73.97851,5.05664 h 1.7168 a 15.0015,15.0015 0 0 0 -2.38868,4.271489 z m 60,0 h 1.7168 a 15.0015,15.0015 0 0 0 -2.38868,4.271489 z m -184.50977,0.240235 h 1.08789 l 0.68164,2.722654 a 15.0015,15.0015 0 0 0 -1.76953,-2.722654 z m 60.68946,2.160154 h 0.5039 l 0.25196,1.25781 a 15.0015,15.0015 0 0 0 -0.75586,-1.25781 z m 278.11132,3.04102 0.46094,0.18554 c -0.0542,-0.0229 -0.11558,-0.0301 -0.16992,-0.0527 -0.0993,-0.0391 -0.19145,-0.0945 -0.29102,-0.13281 z m -289.12304,4.58203 c -0.0226,0.0119 -0.038,0.031 -0.0605,0.043 v -0.01 z m 61.24609,2.04297 c -0.0536,0.0678 -0.0842,0.13532 -0.13672,0.20312 -0.0246,0.0322 -0.0656,0.0595 -0.0898,0.0918 z m 60,0 c -0.0536,0.0678 -0.0842,0.13532 -0.13672,0.20312 -0.0246,0.0322 -0.0656,0.0595 -0.0898,0.0918 z m -196.09961,6.8125 a 15.0015,15.0015 0 0 0 0.99219,1.52344 l -0.48828,0.48828 z m 235.35547,5.34765 0.0176,0.084 c -0.002,-0.01 -0.008,-0.0196 -0.01,-0.0293 -0.004,-0.0178 -0.004,-0.0369 -0.008,-0.0547 z m 65.75391,1.81836 2.83203,2.875 h -5.70703 z m -323.91797,1.65625 0.5957,0.50977 c -0.16335,-0.14702 -0.36736,-0.30369 -0.5332,-0.45117 -0.0219,-0.0178 -0.0406,-0.0409 -0.0625,-0.0586 z m 7.20312,8.08985 0.17969,0.29297 c -0.0263,-0.0438 -0.0633,-0.0774 -0.0898,-0.1211 -0.0341,-0.0551 -0.0553,-0.11711 -0.0899,-0.17187 z m 101.70703,0.83593 a 15.0015,15.0015 0 0 0 0.33204,0.0332 v 0.0586 c -0.14726,-0.0561 -0.17258,-0.0209 -0.33204,-0.0918 z m 280.50782,7.42579 0.42968,0.93945 c -0.0916,-0.21998 -0.20583,-0.36812 -0.30078,-0.57813 -0.0549,-0.11521 -0.0719,-0.24739 -0.1289,-0.36132 z m -325.64258,22.96289 -0.30078,0.36718 c 0.0674,-0.0801 0.10786,-0.16386 0.17383,-0.24414 0.0356,-0.0441 0.0919,-0.0787 0.12695,-0.12304 z m -41.84766,2.16601 -0.0527,0.0937 c 0.008,-0.0145 0.0133,-0.0304 0.0215,-0.0449 0.009,-0.0169 0.0219,-0.032 0.0312,-0.0488 z m 169.28125,26.29102 -0.41406,0.36914 c 0.0648,-0.0559 0.0962,-0.12728 0.16016,-0.1836 0.0793,-0.0717 0.17535,-0.1126 0.2539,-0.18554 z m 60,0 -0.41406,0.36914 c 0.0648,-0.0559 0.0962,-0.12728 0.16016,-0.1836 0.0793,-0.0717 0.17535,-0.1126 0.2539,-0.18554 z m -92.10156,5.38086 c 0.0495,0.0137 0.10086,0.0177 0.15039,0.0312 0.0432,0.0112 0.0837,0.0318 0.12695,0.043 z m 60,0 c 0.0495,0.0137 0.10086,0.0177 0.15039,0.0312 0.0432,0.0112 0.0837,0.0318 0.12695,0.043 z"
             id="path5" /></g><path
           style="-inkscape-font-specification:'Noto Sans ExtraCondensed,  Bold Extra-Condensed';fill:#f6ecda;stroke-width:20;stroke-linecap:round;stroke-linejoin:round;stroke-miterlimit:20"
           d="m 596.6155,146.1664 q 0,7.92 -3.24,13.68 -3.12,5.64 -8.64,8.64 -5.4,2.88 -12.36,2.88 -2.64,0 -5.88,-0.6 -3.24,-0.48 -6.6,-1.56 -3.24,-1.2 -6.48,-2.88 v -16.92 q 4.92,2.64 9.6,4.8 4.8,2.16 9.36,2.16 3,0 4.8,-1.32 1.8,-1.32 2.52,-3.36 0.84,-2.16 0.84,-4.68 0,-3 -1.44,-5.28 -1.44,-2.4 -3.96,-4.44 -2.4,-2.16 -5.4,-4.56 -1.68,-1.68 -4.32,-3.6 -2.52,-1.92 -5.16,-4.68 -2.64,-2.88 -4.44,-6.84 -1.68,-3.96 -1.68,-9.72 0,-7.2 2.52,-12.720003 2.64,-5.64 7.8,-8.76 5.28,-3.12 12.72,-3.12 4.08,0 8.76,1.32 4.68,1.32 10.92,4.44 l -4.8,14.160003 q -4.92,-2.64 -8.04,-3.720003 -3.12,-1.08 -6.24,-1.08 -2.16,0 -3.96,1.08 -1.68,1.080003 -2.64,3.000003 -0.96,1.92 -0.96,4.56 0,3.24 1.08,5.4 1.08,2.04 3.48,3.96 2.4,1.92 6,4.68 5.28,3.36 8.76,6.96 3.48,3.6 5.28,8.04 1.8,4.44 1.8,10.08 z m 40.20004,-42.84 q 9.24,0 14.28,8.88 5.04,8.88 5.04,25.2 0,10.56 -2.28,18.24 -2.28,7.56 -6.48,11.64 -4.2,4.08 -10.08,4.08 -3,0 -5.76,-1.08 -2.64,-1.08 -4.92,-3.24 -2.16,-2.16 -3.84,-5.4 h -0.48 q 0.24,3.6 0.36,6.48 0.12,2.76 0.12,4.56 v 26.28 h -15.6 v -94.44 h 12.6 l 2.16,8.64 h 0.84 q 2.16,-3.84 4.2,-6 2.04,-2.16 4.44,-3 2.52,-0.84 5.4,-0.84 z m -4.8,13.2 q -3.24,0 -5.28,2.04 -1.92,1.92 -3,6.24 -0.96,4.2 -0.96,10.92 v 3.24 q 0,6.6 0.96,10.8 1.08,4.08 3,6.12 2.04,2.04 5.16,2.04 2.88,0 4.68,-2.28 1.92,-2.28 2.76,-6.72 0.96,-4.44 0.96,-11.28 0,-10.68 -2.04,-15.84 -2.04,-5.28 -6.24,-5.28 z m 63.72,-13.2 q 1.2,0 2.4,0.24 1.32,0.12 3,0.6 l -1.56,16.68 q -1.08,-0.48 -2.52,-0.6 -1.32,-0.24 -3,-0.24 -2.76,0 -4.8,1.2 -2.04,1.08 -3.6,3.36 -1.44,2.16 -2.16,5.28 -0.6,3.12 -0.6,6.84 v 33.48 h -15.72 v -65.64 h 12.12 l 2.16,10.8 h 0.84 q 1.32,-3.12 3.24,-5.88 1.92,-2.76 4.44,-4.44 2.64,-1.68 5.76,-1.68 z m 28.80001,1.2 v 65.64 h -15.72 v -65.64 z m -7.8,-25.800003 q 4.44,0 6.48,2.28 2.04,2.28 2.04,6.72 0,4.32 -2.16,6.6 -2.16,2.16 -6.36,2.16 -4.2,0 -6.36,-2.16 -2.16,-2.28 -2.16,-6.6 0,-4.56 2.04,-6.72 2.16,-2.28 6.48,-2.28 z m 38.39994,24.600003 q 4.56,0 7.8,2.16 3.36,2.16 6.12,7.44 h 0.84 l 1.32,-8.4 h 13.44 v 62.28 q 0,10.32 -2.88,17.52 -2.88,7.2 -9.12,10.92 -6.24,3.72 -16.08,3.72 -5.4,0 -9.72,-1.2 -4.32,-1.08 -8.16,-3.36 v -13.8 q 4.8,2.64 9,3.72 4.32,1.2 8.4,1.2 6.12,0 9.48,-3.12 3.48,-3 3.48,-10.32 v -1.08 q 0,-2.04 0.12,-4.68 0.24,-2.64 0.48,-4.92 h -0.6 q -2.64,5.16 -6,7.56 -3.36,2.4 -8.4,2.4 -8.88,0 -13.92,-8.76 -5.04,-8.88 -5.04,-24.84 0,-16.44 5.16,-25.44 5.16,-9 14.28,-9 z m 4.68,13.56 q -2.76,0 -4.56,2.4 -1.8,2.28 -2.76,6.96 -0.96,4.68 -0.96,11.76 0,10.08 2.04,15 2.16,4.92 6.48,4.92 2.28,0 3.96,-1.08 1.68,-1.2 2.76,-3.36 1.2,-2.16 1.68,-5.52 0.6,-3.48 0.6,-8.04 v -3.24 q 0,-6.96 -0.96,-11.28 -0.96,-4.44 -3,-6.48 -2.04,-2.04 -5.28,-2.04 z m 55.32,-13.56 q 4.56,0 7.8,2.16 3.36,2.16 6.12,7.44 h 0.84 l 1.32,-8.4 h 13.44 v 62.28 q 0,10.32 -2.88,17.52 -2.88,7.2 -9.12,10.92 -6.24,3.72 -16.08,3.72 -5.4,0 -9.72,-1.2 -4.32,-1.08 -8.16,-3.36 v -13.8 q 4.8,2.64 9,3.72 4.32,1.2 8.4,1.2 6.12,0 9.48,-3.12 3.48,-3 3.48,-10.32 v -1.08 q 0,-2.04 0.12,-4.68 0.24,-2.64 0.48,-4.92 h -0.6 q -2.64,5.16 -6,7.56 -3.36,2.4 -8.4,2.4 -8.88,0 -13.92,-8.76 -5.04,-8.88 -5.04,-24.84 0,-16.44 5.16,-25.44 5.16,-9 14.28,-9 z m 4.68,13.56 q -2.76,0 -4.56,2.4 -1.8,2.28 -2.76,6.96 -0.96,4.68 -0.96,11.76 0,10.08 2.04,15 2.16,4.92 6.48,4.92 2.28,0 3.96,-1.08 1.68,-1.2 2.76,-3.36 1.2,-2.16 1.68,-5.52 0.6,-3.48 0.6,-8.04 v -3.24 q 0,-6.96 -0.96,-11.28 -0.96,-4.44 -3,-6.48 -2.04,-2.04 -5.28,-2.04 z m 53.88,53.28 h -15.6 V 78.966397 h 15.6 z m 34.80007,-66.72 q 7.44,0 12.48,3.72 5.16,3.6 7.8,10.2 2.64,6.6 2.64,15.6 v 8.88 h -31.32 q 0.12,8.52 3.12,12.72 3.12,4.08 9.36,4.08 4.2,0 7.92,-1.08 3.72,-1.2 7.92,-3.72 v 12.96 q -3.96,2.4 -8.4,3.48 -4.44,1.08 -9.6,1.08 -9,0 -14.76,-4.08 -5.64,-4.08 -8.28,-11.64 -2.64,-7.56 -2.64,-17.88 0,-11.16 2.64,-18.72 2.76,-7.68 8.04,-11.64 5.28,-3.96 13.08,-3.96 z m 0.24,12.24 q -3.72,0 -6.12,3.48 -2.28,3.48 -2.4,11.4 h 16.68 q 0,-4.68 -0.96,-7.92 -0.96,-3.36 -2.76,-5.16 -1.8,-1.8 -4.44,-1.8 z m 68.16009,35.28 q 0,6.6 -2.52,11.28 -2.52,4.56 -7.2,6.84 -4.68,2.28 -11.28,2.28 -4.68,0 -9,-0.96 -4.32,-0.84 -8.16,-2.76 v -15.12 q 3.24,2.16 7.32,3.72 4.2,1.56 8.52,1.56 3.24,0 4.92,-1.44 1.8,-1.56 1.8,-4.56 0,-1.68 -0.72,-3.12 -0.6,-1.44 -2.76,-3 -2.16,-1.56 -6.36,-3.72 -4.08,-2.28 -6.96,-5.04 -2.88,-2.88 -4.44,-6.6 -1.44,-3.72 -1.44,-8.4 0,-8.64 5.4,-13.56 5.4,-5.04 14.76,-5.04 4.8,0 9,1.32 4.2,1.32 8.4,3.84 l -4.32,12 q -2.76,-1.92 -5.88,-3.12 -3.12,-1.32 -6.36,-1.32 -2.88,0 -4.44,1.32 -1.44,1.32 -1.44,3.84 0,1.68 0.6,3 0.72,1.2 2.88,2.64 2.16,1.44 6.12,3.96 4.08,2.28 7.08,5.04 3,2.76 4.68,6.48 1.8,3.6 1.8,8.64 z"
           id="text2"
           transform="matrix(0.99992904,-0.07556606,-0.01191639,1.0009715,0,0)"
           aria-label="Spriggles" /></g><g
         id="g3"
         transform="translate(282.89763,50.53668)"
         style="stroke-width:1.00157;stroke-dasharray:none"><path
           style="opacity:1;fill:#5aa422;fill-opacity:1;stroke:none;stroke-width:1.00157;stroke-linecap:round;stroke-linejoin:round;stroke-miterlimit:20;stroke-dasharray:none;stroke-opacity:1"
           d="m 500.32018,139.82898 c 0,0 4.3766,-16.71028 25.26256,-23.27423 20.88597,-6.56394 32.42357,2.18735 32.42357,2.18735 0,0 -14.50251,16.50892 -28.24599,20.48982 -13.74349,3.9809 -29.44014,0.59706 -29.44014,0.59706 z"
           id="path2"
           sodipodi:nodetypes="czczc" /><path
           style="opacity:1;fill:#5aa422;fill-opacity:1;stroke:none;stroke-width:1.00157;stroke-linecap:round;stroke-linejoin:round;stroke-miterlimit:20;stroke-dasharray:none;stroke-opacity:1"
           d="m 475.37989,150.28243 c 0,0 -3.15085,-9.78966 -5.67213,-14.23009 -2.28979,-4.03272 -8.45845,-11.04574 -8.45845,-11.04574 0,0 -12.78936,-1.14727 -18.50908,-3.78143 -8.24314,-3.7963 -15.88189,-9.58564 -21.48086,-16.72797 -5.0193,-6.40287 -7.51647,-14.52176 -9.96465,-22.2804 -2.94814,-9.34302 -6.94483,-27.2503 -5.57263,-28.85823 1.3722,-1.60793 25.34574,1.18004 36.81912,5.97067 8.093,3.37918 15.84332,8.6057 21.2547,15.50732 5.84421,7.45364 9.92197,16.85541 10.78789,26.28736 0.5329,5.80452 -2.5595,16.83634 -3.5824,17.11592 -1.0229,0.27958 -11.47995,-20.59004 -19.50418,-29.05726 -6.68075,-7.04956 -23.28561,-17.51396 -23.28561,-17.51396 0,0 21.22893,22.9752 30.05236,35.82402 6.82473,9.93828 17.51397,31.64454 17.51397,31.64454 l 10.7472,-34.62988 c 0,0 -5.04549,-15.12138 -4.57752,-22.88757 0.79183,-13.14046 4.8642,-26.67964 12.33939,-37.5157 7.27176,-10.54117 18.52254,-18.213989 29.85335,-24.181208 14.02203,-7.384522 43.55014,-15.360341 45.5761,-13.533516 2.02596,1.826825 1.04232,26.227264 -1.39315,39.008364 -1.95325,10.25044 -4.94852,20.64641 -10.466,29.50328 -6.90022,11.07651 -16.30001,21.06874 -27.34824,28.01417 -10.9052,6.85551 -35.65553,12.92434 -36.62011,12.33938 C 492.92438,114.66955 504.57418,87.736048 512,75.052 c 8.68639,-14.837236 30.63822,-41.493037 30.63822,-41.493037 0,0 -13.46927,9.197112 -19.09493,15.023077 -8.68128,8.990382 -16.18874,19.26857 -22.13829,30.25922 -6.24309,11.53291 -10.42006,24.16297 -13.88474,36.81129 -1.6194,5.91183 -1.87603,12.12267 -3.18436,18.11103 -1.22956,5.62783 -4.3785,16.71787 -4.3785,16.71787 z"
           id="path3"
           sodipodi:nodetypes="cacaaazaaazacaccaaazaaazacaaaacc" /></g></g></g></svg>
