<?xml version="1.0" encoding="UTF-8" standalone="no"?>
<!-- Created with Inkscape (http://www.inkscape.org/) -->

<svg
   width="512"
   height="512"
   viewBox="0 0 512 512"
   version="1.1"
   id="svg1"
   xml:space="preserve"
   inkscape:version="1.4 (86a8ad7, 2024-10-11)"
   sodipodi:docname="spriggles-full.svg"
   xmlns:inkscape="http://www.inkscape.org/namespaces/inkscape"
   xmlns:sodipodi="http://sodipodi.sourceforge.net/DTD/sodipodi-0.dtd"
   xmlns="http://www.w3.org/2000/svg"
   xmlns:svg="http://www.w3.org/2000/svg"><sodipodi:namedview
     id="namedview1"
     pagecolor="#ffffff"
     bordercolor="#000000"
     borderopacity="0.25"
     inkscape:showpageshadow="2"
     inkscape:pageopacity="0.0"
     inkscape:pagecheckerboard="0"
     inkscape:deskcolor="#d1d1d1"
     inkscape:document-units="mm"
     showgrid="false"
     inkscape:zoom="1.2561406"
     inkscape:cx="692.99567"
     inkscape:cy="134.14103"
     inkscape:window-width="3440"
     inkscape:window-height="1369"
     inkscape:window-x="-8"
     inkscape:window-y="-8"
     inkscape:window-maximized="1"
     inkscape:current-layer="g4"><inkscape:grid
       id="grid1"
       units="mm"
       originx="0"
       originy="0"
       spacingx="3.7795276"
       spacingy="3.7795276"
       empcolor="#0099e5"
       empopacity="0.30196078"
       color="#0099e5"
       opacity="0.14901961"
       empspacing="2"
       enabled="true"
       visible="false" /></sodipodi:namedview><defs
     id="defs1" /><g
     inkscape:label="Layer 1"
     inkscape:groupmode="layer"
     id="layer1"><g
       id="g4"
       transform="matrix(1.1360934,0,0,1.1271056,-619.95487,-6.6445256)"
       style="stroke-width:0.883712"><ellipse
         style="fill:#1e6e23;fill-opacity:1;stroke-width:88.3712;stroke-linecap:round;stroke-miterlimit:20"
         id="path1"
         cx="771.02362"
         cy="241.88977"
         rx="162.5"
         ry="167.5" /><g
         id="g2"
         transform="translate(7.5590415,158.74016)"><g
           id="text1"
           transform="matrix(0.99992904,-0.07556606,-0.01191639,1.0009715,0,0)"><path
             style="-inkscape-font-specification:'Noto Sans ExtraCondensed,  Bold Extra-Condensed';fill:#ffffff;fill-opacity:0.483766;stroke-linecap:round;stroke-linejoin:round;stroke-miterlimit:20"
             d="m 596.6155,146.1664 q 0,7.92 -3.24,13.68 -3.12,5.64 -8.64,8.64 -5.4,2.88 -12.36,2.88 -2.64,0 -5.88,-0.6 -3.24,-0.48 -6.6,-1.56 -3.24,-1.2 -6.48,-2.88 v -16.92 q 4.92,2.64 9.6,4.8 4.8,2.16 9.36,2.16 3,0 4.8,-1.32 1.8,-1.32 2.52,-3.36 0.84,-2.16 0.84,-4.68 0,-3 -1.44,-5.28 -1.44,-2.4 -3.96,-4.44 -2.4,-2.16 -5.4,-4.56 -1.68,-1.68 -4.32,-3.6 -2.52,-1.92 -5.16,-4.68 -2.64,-2.88 -4.44,-6.84 -1.68,-3.96 -1.68,-9.72 0,-7.2 2.52,-12.720003 2.64,-5.64 7.8,-8.76 5.28,-3.12 12.72,-3.12 4.08,0 8.76,1.32 4.68,1.32 10.92,4.44 l -4.8,14.160003 q -4.92,-2.64 -8.04,-3.720003 -3.12,-1.08 -6.24,-1.08 -2.16,0 -3.96,1.08 -1.68,1.080003 -2.64,3.000003 -0.96,1.92 -0.96,4.56 0,3.24 1.08,5.4 1.08,2.04 3.48,3.96 2.4,1.92 6,4.68 5.28,3.36 8.76,6.96 3.48,3.6 5.28,8.04 1.8,4.44 1.8,10.08 z m 40.20004,-42.84 q 9.24,0 14.28,8.88 5.04,8.88 5.04,25.2 0,10.56 -2.28,18.24 -2.28,7.56 -6.48,11.64 -4.2,4.08 -10.08,4.08 -3,0 -5.76,-1.08 -2.64,-1.08 -4.92,-3.24 -2.16,-2.16 -3.84,-5.4 h -0.48 q 0.24,3.6 0.36,6.48 0.12,2.76 0.12,4.56 v 26.28 h -15.6 v -94.44 h 12.6 l 2.16,8.64 h 0.84 q 2.16,-3.84 4.2,-6 2.04,-2.16 4.44,-3 2.52,-0.84 5.4,-0.84 z m -4.8,13.2 q -3.24,0 -5.28,2.04 -1.92,1.92 -3,6.24 -0.96,4.2 -0.96,10.92 v 3.24 q 0,6.6 0.96,10.8 1.08,4.08 3,6.12 2.04,2.04 5.16,2.04 2.88,0 4.68,-2.28 1.92,-2.28 2.76,-6.72 0.96,-4.44 0.96,-11.28 0,-10.68 -2.04,-15.84 -2.04,-5.28 -6.24,-5.28 z m 63.72,-13.2 q 1.2,0 2.4,0.24 1.32,0.12 3,0.6 l -1.56,16.68 q -1.08,-0.48 -2.52,-0.6 -1.32,-0.24 -3,-0.24 -2.76,0 -4.8,1.2 -2.04,1.08 -3.6,3.36 -1.44,2.16 -2.16,5.28 -0.6,3.12 -0.6,6.84 v 33.48 h -15.72 v -65.64 h 12.12 l 2.16,10.8 h 0.84 q 1.32,-3.12 3.24,-5.88 1.92,-2.76 4.44,-4.44 2.64,-1.68 5.76,-1.68 z m 28.80001,1.2 v 65.64 h -15.72 v -65.64 z m -7.8,-25.800003 q 4.44,0 6.48,2.28 2.04,2.28 2.04,6.72 0,4.32 -2.16,6.6 -2.16,2.16 -6.36,2.16 -4.2,0 -6.36,-2.16 -2.16,-2.28 -2.16,-6.6 0,-4.56 2.04,-6.72 2.16,-2.28 6.48,-2.28 z m 38.39994,24.600003 q 4.56,0 7.8,2.16 3.36,2.16 6.12,7.44 h 0.84 l 1.32,-8.4 h 13.44 v 62.28 q 0,10.32 -2.88,17.52 -2.88,7.2 -9.12,10.92 -6.24,3.72 -16.08,3.72 -5.4,0 -9.72,-1.2 -4.32,-1.08 -8.16,-3.36 v -13.8 q 4.8,2.64 9,3.72 4.32,1.2 8.4,1.2 6.12,0 9.48,-3.12 3.48,-3 3.48,-10.32 v -1.08 q 0,-2.04 0.12,-4.68 0.24,-2.64 0.48,-4.92 h -0.6 q -2.64,5.16 -6,7.56 -3.36,2.4 -8.4,2.4 -8.88,0 -13.92,-8.76 -5.04,-8.88 -5.04,-24.84 0,-16.44 5.16,-25.44 5.16,-9 14.28,-9 z m 4.68,13.56 q -2.76,0 -4.56,2.4 -1.8,2.28 -2.76,6.96 -0.96,4.68 -0.96,11.76 0,10.08 2.04,15 2.16,4.92 6.48,4.92 2.28,0 3.96,-1.08 1.68,-1.2 2.76,-3.36 1.2,-2.16 1.68,-5.52 0.6,-3.48 0.6,-8.04 v -3.24 q 0,-6.96 -0.96,-11.28 -0.96,-4.44 -3,-6.48 -2.04,-2.04 -5.28,-2.04 z m 55.32,-13.56 q 4.56,0 7.8,2.16 3.36,2.16 6.12,7.44 h 0.84 l 1.32,-8.4 h 13.44 v 62.28 q 0,10.32 -2.88,17.52 -2.88,7.2 -9.12,10.92 -6.24,3.72 -16.08,3.72 -5.4,0 -9.72,-1.2 -4.32,-1.08 -8.16,-3.36 v -13.8 q 4.8,2.64 9,3.72 4.32,1.2 8.4,1.2 6.12,0 9.48,-3.12 3.48,-3 3.48,-10.32 v -1.08 q 0,-2.04 0.12,-4.68 0.24,-2.64 0.48,-4.92 h -0.6 q -2.64,5.16 -6,7.56 -3.36,2.4 -8.4,2.4 -8.88,0 -13.92,-8.76 -5.04,-8.88 -5.04,-24.84 0,-16.44 5.16,-25.44 5.16,-9 14.28,-9 z m 4.68,13.56 q -2.76,0 -4.56,2.4 -1.8,2.28 -2.76,6.96 -0.96,4.68 -0.96,11.76 0,10.08 2.04,15 2.16,4.92 6.48,4.92 2.28,0 3.96,-1.08 1.68,-1.2 2.76,-3.36 1.2,-2.16 1.68,-5.52 0.6,-3.48 0.6,-8.04 v -3.24 q 0,-6.96 -0.96,-11.28 -0.96,-4.44 -3,-6.48 -2.04,-2.04 -5.28,-2.04 z m 53.88,53.28 h -15.6 V 78.966397 h 15.6 z m 34.80007,-66.72 q 7.44,0 12.48,3.72 5.16,3.6 7.8,10.2 2.64,6.6 2.64,15.6 v 8.88 h -31.32 q 0.12,8.52 3.12,12.72 3.12,4.08 9.36,4.08 4.2,0 7.92,-1.08 3.72,-1.2 7.92,-3.72 v 12.96 q -3.96,2.4 -8.4,3.48 -4.44,1.08 -9.6,1.08 -9,0 -14.76,-4.08 -5.64,-4.08 -8.28,-11.64 -2.64,-7.56 -2.64,-17.88 0,-11.16 2.64,-18.72 2.76,-7.68 8.04,-11.64 5.28,-3.96 13.08,-3.96 z m 0.24,12.24 q -3.72,0 -6.12,3.48 -2.28,3.48 -2.4,11.4 h 16.68 q 0,-4.68 -0.96,-7.92 -0.96,-3.36 -2.76,-5.16 -1.8,-1.8 -4.44,-1.8 z m 68.16009,35.28 q 0,6.6 -2.52,11.28 -2.52,4.56 -7.2,6.84 -4.68,2.28 -11.28,2.28 -4.68,0 -9,-0.96 -4.32,-0.84 -8.16,-2.76 v -15.12 q 3.24,2.16 7.32,3.72 4.2,1.56 8.52,1.56 3.24,0 4.92,-1.44 1.8,-1.56 1.8,-4.56 0,-1.68 -0.72,-3.12 -0.6,-1.44 -2.76,-3 -2.16,-1.56 -6.36,-3.72 -4.08,-2.28 -6.96,-5.04 -2.88,-2.88 -4.44,-6.6 -1.44,-3.72 -1.44,-8.4 0,-8.64 5.4,-13.56 5.4,-5.04 14.76,-5.04 4.8,0 9,1.32 4.2,1.32 8.4,3.84 l -4.32,12 q -2.76,-1.92 -5.88,-3.12 -3.12,-1.32 -6.36,-1.32 -2.88,0 -4.44,1.32 -1.44,1.32 -1.44,3.84 0,1.68 0.6,3 0.72,1.2 2.88,2.64 2.16,1.44 6.12,3.96 4.08,2.28 7.08,5.04 3,2.76 4.68,6.48 1.8,3.6 1.8,8.64 z"
             id="path4" /><path
             style="-inkscape-font-specification:'Noto Sans ExtraCondensed,  Bold Extra-Condensed';fill:#207127;stroke-linecap:round;stroke-linejoin:round;stroke-miterlimit:20"
             d="m 716.73633,65.470703 c -5.21202,0 -11.62911,1.696934 -16.10352,6.419922 a 13.257026,13.257026 0 0 0 -0.0137,0.01367 c -4.55722,4.825289 -5.66016,10.805538 -5.66016,15.822265 0,0.780082 0.10926,1.6124 0.1836,2.429688 -3.70281,0.0993 -7.41446,1.200272 -10.69922,2.955078 a 13.257026,13.257026 0 0 0 -5.14844,-1.839844 h -12.11914 a 13.257026,13.257026 0 0 0 -11.36133,6.507813 c -5.32986,-4.603856 -12.07456,-7.708985 -18.99804,-7.708985 -3.20875,0 -6.47461,0.48242 -9.5918,1.521485 a 13.257026,13.257026 0 0 0 -0.1875,0.0625 c -0.89621,0.313674 -1.65483,0.841599 -2.49024,1.257812 a 13.257026,13.257026 0 0 0 -4.77148,-1.640625 h -9.90234 A 13.257026,13.257026 0 0 0 602.7832,77.189453 c -4.67681,-2.338406 -8.98525,-4.13892 -13.25,-5.341797 -4.08863,-1.153203 -8.20788,-1.816406 -12.35742,-1.816406 -6.81295,0 -13.59521,1.495624 -19.46289,4.962891 a 13.257026,13.257026 0 0 0 -0.11523,0.06836 c -5.60984,3.391992 -10.17937,8.571132 -12.94727,14.484375 a 13.257026,13.257026 0 0 0 -0.0527,0.115234 c -2.58422,5.660678 -3.71875,11.878111 -3.71875,18.224611 0,5.12875 0.71192,10.12928 2.73437,14.89648 a 13.257026,13.257026 0 0 0 0.13477,0.3086 c 1.70928,3.76042 3.9454,7.26785 6.73632,10.3125 a 13.257026,13.257026 0 0 0 0.19141,0.20507 c 1.18019,1.23383 2.44821,2.22348 3.67383,3.31836 a 13.257026,13.257026 0 0 0 -14.18945,12.47852 v 16.91992 a 13.257026,13.257026 0 0 0 7.15429,11.76758 c 2.61799,1.35748 5.27676,2.54304 7.97657,3.54297 a 13.257026,13.257026 0 0 0 0.54882,0.18945 c 2.80094,0.9003 5.63241,1.56228 8.48243,1.99805 2.70971,0.49033 5.36857,0.79883 8.05273,0.79883 6.46837,0 12.91114,-1.4086 18.59766,-4.44141 a 13.257026,13.257026 0 0 0 0.0918,-0.0488 c 0.99427,-0.54036 1.91947,-1.19755 2.85547,-1.83594 v 20.66993 a 13.257026,13.257026 0 0 0 13.25586,13.25586 h 15.59961 a 13.257026,13.257026 0 0 0 13.25586,-13.25586 v -14.46289 c 0.42237,0.0186 0.84217,0.11914 1.26367,0.11914 6.77068,0 13.80701,-2.81546 18.80469,-7.42383 a 13.257026,13.257026 0 0 0 11.07617,6.22265 h 15.7207 a 13.257026,13.257026 0 0 0 12.95899,-12.15429 13.257026,13.257026 0 0 0 12.96094,12.15429 h 15.71875 a 13.257026,13.257026 0 0 0 0.90429,-0.24218 v 11.22656 a 13.257026,13.257026 0 0 0 6.48828,11.39844 c 3.59488,2.13445 7.49268,3.73524 11.54297,4.76562 4.20391,1.14987 8.58057,1.65235 13.10547,1.65235 8.23044,0 16.0748,-1.54054 22.86719,-5.58985 2.83266,-1.6887 5.32964,-3.8769 7.5625,-6.30859 a 13.257026,13.257026 0 0 0 4.92187,5.48047 c 3.59488,2.13445 7.49268,3.73524 11.54297,4.76562 4.20391,1.14987 8.58057,1.65235 13.10547,1.65235 8.23044,0 16.0748,-1.54054 22.86719,-5.58985 6.62048,-3.94682 11.78694,-10.24861 14.64062,-17.38281 0.82232,-2.0558 1.4515,-4.19277 1.99219,-6.36914 a 13.257026,13.257026 0 0 0 2.01953,0.54101 h 15.59961 a 13.257026,13.257026 0 0 0 11.72071,-7.52539 c 0.81377,0.72212 1.58539,1.49043 2.4707,2.13086 a 13.257026,13.257026 0 0 0 0.10742,0.0762 c 6.49735,4.60228 14.41879,6.51953 22.42188,6.51953 4.36481,0 8.62653,-0.4583 12.73242,-1.45703 3.34464,-0.81357 6.53016,-2.14381 9.58593,-3.73047 a 13.257026,13.257026 0 0 0 0.0723,0.0664 c 3.59869,1.79935 7.44334,3.09076 11.40234,3.875 3.81065,0.83196 7.72602,1.2461 11.6875,1.2461 5.92642,0 11.75836,-1.02461 17.08399,-3.61914 5.40583,-2.63362 10.09015,-7.0838 12.99805,-12.34571 a 13.257026,13.257026 0 0 0 0.0684,-0.12695 c 2.91321,-5.41023 4.10352,-11.47736 4.10352,-17.56445 0,-4.83148 -0.87494,-9.73325 -3.07227,-14.26368 -1.36919,-2.9842 -3.3022,-5.6716 -5.48828,-8.13281 a 13.257026,13.257026 0 0 0 2.73828,-3.59375 l 4.32032,-12 A 13.257026,13.257026 0 0 0 982.99609,97.119141 C 979.40011,94.961549 975.6461,93.224488 971.75,92 c -4.17795,-1.313071 -8.5595,-1.929687 -12.97461,-1.929688 -8.59091,10e-7 -17.34877,2.629395 -23.73633,8.554688 -0.62343,0.571337 -1.08089,1.284535 -1.64453,1.91016 -1.4413,-1.50182 -2.97704,-2.908708 -4.68359,-4.115238 -5.84542,-4.264742 -13.09817,-6.228516 -20.21485,-6.228516 -7.44327,0 -15.00667,2.091429 -21.0332,6.611328 -0.18446,0.138347 -0.33072,0.315027 -0.51172,0.457032 V 78.966797 A 13.257026,13.257026 0 0 0 873.69531,65.710937 H 858.0957 a 13.257026,13.257026 0 0 0 -13.25586,13.25586 v 12.353515 a 13.257026,13.257026 0 0 0 -0.18359,-0.04883 h -13.44141 a 13.257026,13.257026 0 0 0 -4.01367,1.482422 c -3.83005,-1.817791 -8.04523,-2.683594 -12.0664,-2.683594 -6.96719,0 -13.69899,3.159981 -19.01954,7.808594 a 13.257026,13.257026 0 0 0 -11.45898,-6.607422 h -13.44141 a 13.257026,13.257026 0 0 0 -4.01367,1.482422 c -3.83005,-1.817791 -8.04523,-2.683594 -12.0664,-2.683594 -6.84911,0 -13.45863,3.069436 -18.74024,7.583985 1.44425,-3.301084 2.11719,-6.787848 2.11719,-9.927735 0,-4.990152 -1.20688,-10.852081 -5.41797,-15.558593 -4.54651,-5.081397 -11.12843,-6.697266 -16.35742,-6.697266 z m 0,17.759766 c -0.5276,0 1.41411,0.125046 3.01172,1.722656 l 0.25,0.255859 c 1.24717,1.316463 1.39306,2.489981 1.42187,2.402344 -0.0967,0.377476 -0.41042,1.313467 -1.52734,2.496094 l -0.0137,0.01563 c -0.58674,0.619331 -1.18212,0.870901 -1.74805,1.148437 h -2.73828 c -0.64288,-0.314138 -1.34649,-0.632079 -2.05664,-1.425781 -0.94266,-1.05356 -1.20294,-1.920432 -1.28516,-2.234375 0.0288,0.08764 0.1747,-1.085881 1.42188,-2.402344 l 0.25,-0.255859 c 1.59761,-1.59761 3.54126,-1.722656 3.01367,-1.722656 z m -17.40039,7.134765 1.39843,0.203125 c -0.23552,-0.0471 -0.48326,-0.03169 -0.7207,-0.07227 -0.23834,-0.02844 -0.43339,-0.108646 -0.67773,-0.13086 z m 70.76758,3.970703 0.18554,0.121094 c -0.0313,-0.02084 -0.0663,-0.034 -0.0976,-0.05469 -0.0317,-0.02058 -0.056,-0.04592 -0.0879,-0.06641 z m 60,0 0.18554,0.121094 c -0.0313,-0.02084 -0.0663,-0.034 -0.0976,-0.05469 -0.0317,-0.02058 -0.056,-0.04592 -0.0879,-0.06641 z m -71.54297,5.333985 h 1.125 a 13.257026,13.257026 0 0 0 -1.56446,2.798828 z m 60,0 h 1.125 a 13.257026,13.257026 0 0 0 -1.56446,2.798828 z m -186.83594,0.240234 h 0.56055 l 0.34961,1.400394 a 13.257026,13.257026 0 0 0 -0.91016,-1.400394 z m 339.00976,5.083984 0.40625,0.16406 c -0.0467,-0.0198 -0.0996,-0.0254 -0.14648,-0.0449 -0.0887,-0.0349 -0.17079,-0.0849 -0.25977,-0.11914 z m -287.68164,4.49609 c -0.0976,0.0517 -0.16528,0.13448 -0.26171,0.1875 -0.0815,0.0464 -0.17487,0.0559 -0.25586,0.10352 z m 61.79883,1.58204 c -0.0456,0.0577 -0.0724,0.11605 -0.11719,0.17382 -0.0231,0.0303 -0.0612,0.0556 -0.084,0.0859 z m 60,0 c -0.0456,0.0577 -0.0724,0.11605 -0.11719,0.17382 -0.0231,0.0303 -0.0612,0.0556 -0.084,0.0859 z m -21.86133,3.91211 -0.15429,0.97656 -0.25196,-0.25 a 13.257026,13.257026 0 0 0 0.40625,-0.72656 z m 60,0 -0.15429,0.97656 -0.25196,-0.25 a 13.257026,13.257026 0 0 0 0.40625,-0.72656 z m -192.4082,1.94921 0.0391,0.0957 c -0.006,-0.0155 -0.0174,-0.0314 -0.0234,-0.0469 -0.006,-0.0162 -0.009,-0.0327 -0.0156,-0.0488 z m 130.45313,5.59766 0.0176,0.0742 c -0.003,-0.0123 -0.009,-0.0248 -0.0117,-0.0371 -0.003,-0.012 -0.003,-0.0251 -0.006,-0.0371 z m 60,0 0.0176,0.0742 c -0.003,-0.0123 -0.009,-0.0248 -0.0117,-0.0371 -0.003,-0.012 -0.003,-0.0251 -0.006,-0.0371 z m 67.45703,3.18359 2.43945,2.47461 c -0.40795,0.18945 -0.77611,0.2872 -1.16992,0.40039 h -2.4336 c -0.46556,-0.12655 -0.82478,-0.184 -1.31445,-0.39648 z m -325.01563,1.26954 0.52735,0.44921 c -0.15019,-0.13516 -0.33977,-0.28036 -0.49219,-0.41601 -0.0124,-0.0101 -0.0227,-0.0232 -0.0352,-0.0332 z m 110.71485,5.9746 a 13.257026,13.257026 0 0 0 0.59961,0.0625 c -0.0557,0.0116 -0.12936,0.0486 -0.17579,0.0566 -0.18408,-0.0626 -0.2068,-0.0227 -0.42382,-0.11914 z m -103.88868,1.68946 0.16016,0.25781 c -0.025,-0.0417 -0.0607,-0.0737 -0.0859,-0.11523 -0.0283,-0.0456 -0.0455,-0.0972 -0.0742,-0.14258 z m 382.12891,8.10937 0.38086,0.83008 c -0.0811,-0.19473 -0.18344,-0.32735 -0.26758,-0.51367 -0.0482,-0.10089 -0.0634,-0.21657 -0.11328,-0.31641 z m -190.85352,7.08399 -0.0605,0.37695 c 0.008,-0.0479 0.004,-0.10248 0.0117,-0.15039 0.0112,-0.0756 0.038,-0.15092 0.0488,-0.22656 z m 60,0 -0.0605,0.37695 c 0.008,-0.0479 0.004,-0.10248 0.0117,-0.15039 0.0112,-0.0756 0.038,-0.15092 0.0488,-0.22656 z m -189.21875,1.54882 -0.0684,0.3379 c 0.014,-0.0648 0.0155,-0.13624 0.0293,-0.20118 0.009,-0.0458 0.0304,-0.091 0.0391,-0.13672 z m -60.16406,4.70704 -0.14453,0.39257 c 0.0329,-0.0845 0.0404,-0.17497 0.0723,-0.25976 0.0169,-0.0467 0.0557,-0.086 0.0723,-0.13281 z m 54.78516,7.76171 -0.26563,0.32618 c 0.0606,-0.072 0.0969,-0.14854 0.15625,-0.22071 0.0307,-0.0381 0.0792,-0.0672 0.10938,-0.10547 z m -42.00586,2.4043 -0.0449,0.082 c 0.008,-0.0151 0.013,-0.0318 0.0215,-0.0469 0.007,-0.0123 0.0166,-0.0229 0.0234,-0.0352 z m 169.62109,25.85547 -0.36523,0.32813 c 0.0591,-0.051 0.0882,-0.11661 0.14648,-0.16797 0.0682,-0.0618 0.15112,-0.0974 0.21875,-0.16016 z m 60,0 -0.36523,0.32813 c 0.0591,-0.051 0.0882,-0.11661 0.14648,-0.16797 0.0682,-0.0618 0.15112,-0.0974 0.21875,-0.16016 z m -90.44726,4.97852 c 0.0425,0.0118 0.0863,0.0156 0.1289,0.0273 0.0397,0.0103 0.0775,0.0289 0.11719,0.0391 z m 60,0 c 0.0425,0.0118 0.0863,0.0156 0.1289,0.0273 0.0397,0.0103 0.0775,0.0289 0.11719,0.0391 z"
             id="path5" /></g><path
           style="-inkscape-font-specification:'Noto Sans ExtraCondensed,  Bold Extra-Condensed';fill:#f6ecda;stroke-width:17.6742;stroke-linecap:round;stroke-linejoin:round;stroke-miterlimit:20"
           d="m 596.6155,146.1664 q 0,7.92 -3.24,13.68 -3.12,5.64 -8.64,8.64 -5.4,2.88 -12.36,2.88 -2.64,0 -5.88,-0.6 -3.24,-0.48 -6.6,-1.56 -3.24,-1.2 -6.48,-2.88 v -16.92 q 4.92,2.64 9.6,4.8 4.8,2.16 9.36,2.16 3,0 4.8,-1.32 1.8,-1.32 2.52,-3.36 0.84,-2.16 0.84,-4.68 0,-3 -1.44,-5.28 -1.44,-2.4 -3.96,-4.44 -2.4,-2.16 -5.4,-4.56 -1.68,-1.68 -4.32,-3.6 -2.52,-1.92 -5.16,-4.68 -2.64,-2.88 -4.44,-6.84 -1.68,-3.96 -1.68,-9.72 0,-7.2 2.52,-12.720003 2.64,-5.64 7.8,-8.76 5.28,-3.12 12.72,-3.12 4.08,0 8.76,1.32 4.68,1.32 10.92,4.44 l -4.8,14.160003 q -4.92,-2.64 -8.04,-3.720003 -3.12,-1.08 -6.24,-1.08 -2.16,0 -3.96,1.08 -1.68,1.080003 -2.64,3.000003 -0.96,1.92 -0.96,4.56 0,3.24 1.08,5.4 1.08,2.04 3.48,3.96 2.4,1.92 6,4.68 5.28,3.36 8.76,6.96 3.48,3.6 5.28,8.04 1.8,4.44 1.8,10.08 z m 40.20004,-42.84 q 9.24,0 14.28,8.88 5.04,8.88 5.04,25.2 0,10.56 -2.28,18.24 -2.28,7.56 -6.48,11.64 -4.2,4.08 -10.08,4.08 -3,0 -5.76,-1.08 -2.64,-1.08 -4.92,-3.24 -2.16,-2.16 -3.84,-5.4 h -0.48 q 0.24,3.6 0.36,6.48 0.12,2.76 0.12,4.56 v 26.28 h -15.6 v -94.44 h 12.6 l 2.16,8.64 h 0.84 q 2.16,-3.84 4.2,-6 2.04,-2.16 4.44,-3 2.52,-0.84 5.4,-0.84 z m -4.8,13.2 q -3.24,0 -5.28,2.04 -1.92,1.92 -3,6.24 -0.96,4.2 -0.96,10.92 v 3.24 q 0,6.6 0.96,10.8 1.08,4.08 3,6.12 2.04,2.04 5.16,2.04 2.88,0 4.68,-2.28 1.92,-2.28 2.76,-6.72 0.96,-4.44 0.96,-11.28 0,-10.68 -2.04,-15.84 -2.04,-5.28 -6.24,-5.28 z m 63.72,-13.2 q 1.2,0 2.4,0.24 1.32,0.12 3,0.6 l -1.56,16.68 q -1.08,-0.48 -2.52,-0.6 -1.32,-0.24 -3,-0.24 -2.76,0 -4.8,1.2 -2.04,1.08 -3.6,3.36 -1.44,2.16 -2.16,5.28 -0.6,3.12 -0.6,6.84 v 33.48 h -15.72 v -65.64 h 12.12 l 2.16,10.8 h 0.84 q 1.32,-3.12 3.24,-5.88 1.92,-2.76 4.44,-4.44 2.64,-1.68 5.76,-1.68 z m 28.80001,1.2 v 65.64 h -15.72 v -65.64 z m -7.8,-25.800003 q 4.44,0 6.48,2.28 2.04,2.28 2.04,6.72 0,4.32 -2.16,6.6 -2.16,2.16 -6.36,2.16 -4.2,0 -6.36,-2.16 -2.16,-2.28 -2.16,-6.6 0,-4.56 2.04,-6.72 2.16,-2.28 6.48,-2.28 z m 38.39994,24.600003 q 4.56,0 7.8,2.16 3.36,2.16 6.12,7.44 h 0.84 l 1.32,-8.4 h 13.44 v 62.28 q 0,10.32 -2.88,17.52 -2.88,7.2 -9.12,10.92 -6.24,3.72 -16.08,3.72 -5.4,0 -9.72,-1.2 -4.32,-1.08 -8.16,-3.36 v -13.8 q 4.8,2.64 9,3.72 4.32,1.2 8.4,1.2 6.12,0 9.48,-3.12 3.48,-3 3.48,-10.32 v -1.08 q 0,-2.04 0.12,-4.68 0.24,-2.64 0.48,-4.92 h -0.6 q -2.64,5.16 -6,7.56 -3.36,2.4 -8.4,2.4 -8.88,0 -13.92,-8.76 -5.04,-8.88 -5.04,-24.84 0,-16.44 5.16,-25.44 5.16,-9 14.28,-9 z m 4.68,13.56 q -2.76,0 -4.56,2.4 -1.8,2.28 -2.76,6.96 -0.96,4.68 -0.96,11.76 0,10.08 2.04,15 2.16,4.92 6.48,4.92 2.28,0 3.96,-1.08 1.68,-1.2 2.76,-3.36 1.2,-2.16 1.68,-5.52 0.6,-3.48 0.6,-8.04 v -3.24 q 0,-6.96 -0.96,-11.28 -0.96,-4.44 -3,-6.48 -2.04,-2.04 -5.28,-2.04 z m 55.32,-13.56 q 4.56,0 7.8,2.16 3.36,2.16 6.12,7.44 h 0.84 l 1.32,-8.4 h 13.44 v 62.28 q 0,10.32 -2.88,17.52 -2.88,7.2 -9.12,10.92 -6.24,3.72 -16.08,3.72 -5.4,0 -9.72,-1.2 -4.32,-1.08 -8.16,-3.36 v -13.8 q 4.8,2.64 9,3.72 4.32,1.2 8.4,1.2 6.12,0 9.48,-3.12 3.48,-3 3.48,-10.32 v -1.08 q 0,-2.04 0.12,-4.68 0.24,-2.64 0.48,-4.92 h -0.6 q -2.64,5.16 -6,7.56 -3.36,2.4 -8.4,2.4 -8.88,0 -13.92,-8.76 -5.04,-8.88 -5.04,-24.84 0,-16.44 5.16,-25.44 5.16,-9 14.28,-9 z m 4.68,13.56 q -2.76,0 -4.56,2.4 -1.8,2.28 -2.76,6.96 -0.96,4.68 -0.96,11.76 0,10.08 2.04,15 2.16,4.92 6.48,4.92 2.28,0 3.96,-1.08 1.68,-1.2 2.76,-3.36 1.2,-2.16 1.68,-5.52 0.6,-3.48 0.6,-8.04 v -3.24 q 0,-6.96 -0.96,-11.28 -0.96,-4.44 -3,-6.48 -2.04,-2.04 -5.28,-2.04 z m 53.88,53.28 h -15.6 V 78.966397 h 15.6 z m 34.80007,-66.72 q 7.44,0 12.48,3.72 5.16,3.6 7.8,10.2 2.64,6.6 2.64,15.6 v 8.88 h -31.32 q 0.12,8.52 3.12,12.72 3.12,4.08 9.36,4.08 4.2,0 7.92,-1.08 3.72,-1.2 7.92,-3.72 v 12.96 q -3.96,2.4 -8.4,3.48 -4.44,1.08 -9.6,1.08 -9,0 -14.76,-4.08 -5.64,-4.08 -8.28,-11.64 -2.64,-7.56 -2.64,-17.88 0,-11.16 2.64,-18.72 2.76,-7.68 8.04,-11.64 5.28,-3.96 13.08,-3.96 z m 0.24,12.24 q -3.72,0 -6.12,3.48 -2.28,3.48 -2.4,11.4 h 16.68 q 0,-4.68 -0.96,-7.92 -0.96,-3.36 -2.76,-5.16 -1.8,-1.8 -4.44,-1.8 z m 68.16009,35.28 q 0,6.6 -2.52,11.28 -2.52,4.56 -7.2,6.84 -4.68,2.28 -11.28,2.28 -4.68,0 -9,-0.96 -4.32,-0.84 -8.16,-2.76 v -15.12 q 3.24,2.16 7.32,3.72 4.2,1.56 8.52,1.56 3.24,0 4.92,-1.44 1.8,-1.56 1.8,-4.56 0,-1.68 -0.72,-3.12 -0.6,-1.44 -2.76,-3 -2.16,-1.56 -6.36,-3.72 -4.08,-2.28 -6.96,-5.04 -2.88,-2.88 -4.44,-6.6 -1.44,-3.72 -1.44,-8.4 0,-8.64 5.4,-13.56 5.4,-5.04 14.76,-5.04 4.8,0 9,1.32 4.2,1.32 8.4,3.84 l -4.32,12 q -2.76,-1.92 -5.88,-3.12 -3.12,-1.32 -6.36,-1.32 -2.88,0 -4.44,1.32 -1.44,1.32 -1.44,3.84 0,1.68 0.6,3 0.72,1.2 2.88,2.64 2.16,1.44 6.12,3.96 4.08,2.28 7.08,5.04 3,2.76 4.68,6.48 1.8,3.6 1.8,8.64 z"
           id="text2"
           transform="matrix(0.99992904,-0.07556606,-0.01191639,1.0009715,0,0)"
           aria-label="Spriggles" /></g><g
         id="g3"
         transform="translate(282.89763,50.53668)"
         style="stroke-width:0.885099;stroke-dasharray:none"><path
           style="opacity:1;fill:#5aa422;fill-opacity:1;stroke:none;stroke-width:0.885099;stroke-linecap:round;stroke-linejoin:round;stroke-miterlimit:20;stroke-dasharray:none;stroke-opacity:1"
           d="m 500.32018,139.82898 c 0,0 4.3766,-16.71028 25.26256,-23.27423 20.88597,-6.56394 32.42357,2.18735 32.42357,2.18735 0,0 -14.50251,16.50892 -28.24599,20.48982 -13.74349,3.9809 -29.44014,0.59706 -29.44014,0.59706 z"
           id="path2"
           sodipodi:nodetypes="czczc" /><path
           style="opacity:1;fill:#5aa422;fill-opacity:1;stroke:none;stroke-width:0.885099;stroke-linecap:round;stroke-linejoin:round;stroke-miterlimit:20;stroke-dasharray:none;stroke-opacity:1"
           d="m 475.37989,150.28243 c 0,0 -3.15085,-9.78966 -5.67213,-14.23009 -2.28979,-4.03272 -8.45845,-11.04574 -8.45845,-11.04574 0,0 -12.78936,-1.14727 -18.50908,-3.78143 -8.24314,-3.7963 -15.88189,-9.58564 -21.48086,-16.72797 -5.0193,-6.40287 -7.51647,-14.52176 -9.96465,-22.2804 -2.94814,-9.34302 -6.94483,-27.2503 -5.57263,-28.85823 1.3722,-1.60793 25.34574,1.18004 36.81912,5.97067 8.093,3.37918 15.84332,8.6057 21.2547,15.50732 5.84421,7.45364 9.92197,16.85541 10.78789,26.28736 0.5329,5.80452 -2.5595,16.83634 -3.5824,17.11592 -1.0229,0.27958 -11.47995,-20.59004 -19.50418,-29.05726 -6.68075,-7.04956 -23.28561,-17.51396 -23.28561,-17.51396 0,0 21.22893,22.9752 30.05236,35.82402 6.82473,9.93828 17.51397,31.64454 17.51397,31.64454 l 10.7472,-34.62988 c 0,0 -5.04549,-15.12138 -4.57752,-22.88757 0.79183,-13.14046 4.8642,-26.67964 12.33939,-37.5157 7.27176,-10.54117 18.52254,-18.213989 29.85335,-24.181208 14.02203,-7.384522 43.55014,-15.360341 45.5761,-13.533516 2.02596,1.826825 1.04232,26.227264 -1.39315,39.008364 -1.95325,10.25044 -4.94852,20.64641 -10.466,29.50328 -6.90022,11.07651 -16.30001,21.06874 -27.34824,28.01417 -10.9052,6.85551 -35.65553,12.92434 -36.62011,12.33938 C 492.92438,114.66955 504.57418,87.736048 512,75.052 c 8.68639,-14.837236 30.63822,-41.493037 30.63822,-41.493037 0,0 -13.46927,9.197112 -19.09493,15.023077 -8.68128,8.990382 -16.18874,19.26857 -22.13829,30.25922 -6.24309,11.53291 -10.42006,24.16297 -13.88474,36.81129 -1.6194,5.91183 -1.87603,12.12267 -3.18436,18.11103 -1.22956,5.62783 -4.3785,16.71787 -4.3785,16.71787 z"
           id="path3"
           sodipodi:nodetypes="cacaaazaaazacaccaaazaaazacaaaacc" /></g></g></g></svg>
